<?xml version="1.0" encoding="UTF-8" standalone="no"?>
<svg
   xmlns:dc="http://purl.org/dc/elements/1.1/"
   xmlns:cc="http://creativecommons.org/ns#"
   xmlns:rdf="http://www.w3.org/1999/02/22-rdf-syntax-ns#"
   xmlns:svg="http://www.w3.org/2000/svg"
   xmlns="http://www.w3.org/2000/svg"
   viewBox="0 0 919.49335 418.64001"
   height="418.64001"
   width="919.49335"
   xml:space="preserve"
   id="svg2"
   version="1.1"><metadata
     id="metadata8"><rdf:RDF><cc:Work
         rdf:about=""><dc:format>image/svg+xml</dc:format><dc:type
           rdf:resource="http://purl.org/dc/dcmitype/StillImage" /></cc:Work></rdf:RDF></metadata><defs
     id="defs6" /><g
     transform="matrix(1.3333333,0,0,-1.3333333,0,418.64)"
     id="g10"><g
       transform="scale(0.1)"
       id="g12"><path
         id="path14"
         style="fill:#193668;fill-opacity:1;fill-rule:nonzero;stroke:none"
         d="m 197.027,2484.43 c 38.508,-38.52 109.106,-57.77 141.2,-57.77 86.636,0 208.589,96.28 208.589,215.01 0,80.23 -60.976,218.21 -186.128,218.21 -64.184,0 -134.782,-28.87 -173.286,-67.38 -41.722,-41.72 -57.765,-109.12 -57.765,-150.83 0,-73.81 28.883,-121.94 67.39,-157.24" /><path
         id="path16"
         style="fill:#193668;fill-opacity:1;fill-rule:nonzero;stroke:none"
         d="m 1757.56,2484.43 c 38.51,-38.52 109.11,-57.77 141.2,-57.77 86.64,0 208.59,96.28 208.59,215.01 0,80.23 -60.97,218.21 -186.13,218.21 -64.18,0 -134.78,-28.87 -173.29,-67.38 -41.71,-41.72 -57.76,-109.12 -57.76,-150.83 0,-73.81 28.88,-121.94 67.39,-157.24" /><path
         id="path18"
         style="fill:#193668;fill-opacity:1;fill-rule:nonzero;stroke:none"
         d="m 3221.01,1018.67 c -28.88,-38.498 -77.04,-72.068 -120.81,-77.799 -110.02,-12.57 -256.72,105.909 -317.7,324.119 -25.67,80.22 -38.51,211.8 -38.51,317.69 0,231.06 51.35,362.63 121.95,426.81 41.72,41.72 80.23,57.76 131.57,57.76 93.06,0 160.45,-57.76 208.59,-131.57 89.85,-137.99 115.53,-359.42 115.53,-478.15 0,-205.38 -39.65,-355.42 -100.62,-438.86 z m -162.52,1160.9 c -250.32,0 -439.65,-112.32 -532.71,-192.55 -121.94,-102.69 -221.43,-282.4 -221.43,-494.19 0,-192.55 102.7,-385.09 240.69,-497.4 118.73,-99.481 308.06,-166.168 452.47,-166.871 158.99,-0.758 330.53,41.711 462.1,131.57 118.74,77.021 292.03,269.561 292.03,542.331 0,423.59 -372.25,677.11 -693.15,677.11" /><path
         id="path20"
         style="fill:#e81835;fill-opacity:1;fill-rule:nonzero;stroke:none"
         d="m 6809.52,966.539 c -73.81,19.262 -141.2,60.981 -205.38,157.251 -96.27,157.25 -272.76,433.22 -298.44,497.41 -3.21,6.41 0,16.04 3.21,19.25 96.27,115.52 147.61,173.29 221.42,253.51 77.02,86.65 157.25,137.99 266.36,163.67 54.55,22.46 64.17,32.08 64.17,54.55 0,25.67 -32.09,38.5 -73.8,38.5 -57.77,0 -157.25,-16.04 -243.89,-16.04 -64.19,0 -160.46,6.41 -198.96,6.41 -35.3,0 -67.39,-19.25 -67.39,-41.71 0,-22.46 9.62,-38.51 96.27,-64.18 57.76,-16.04 67.39,-54.55 35.3,-102.69 -38.51,-64.18 -83.44,-118.73 -150.82,-208.59 -3.22,-6.41 -19.26,-6.41 -22.46,3.21 -54.56,70.6 -150.84,231.05 -150.84,263.14 0,19.26 3.21,28.89 54.56,51.35 44.93,19.25 54.55,28.88 54.55,54.55 0,28.88 -35.3,41.72 -70.6,41.72 -57.76,0 -125.14,-3.21 -202.17,-3.21 -163.66,0 -304.86,16.04 -381.87,16.04 -41.72,0 -93.07,-16.04 -93.07,-44.92 0,-38.51 32.09,-48.13 96.27,-67.4 64.18,-19.24 121.95,-57.75 192.55,-160.44 99.47,-154.04 231.05,-388.3 247.09,-430.02 9.63,-22.46 9.63,-28.88 3.21,-38.51 -99.48,-137.98 -202.16,-256.71 -272.77,-324.11 -77.01,-70.6 -125.15,-105.901 -224.63,-131.569 -22.46,-6.41 -73.81,-25.672 -73.81,-57.762 0,-41.719 67.4,-41.719 99.49,-41.719 93.05,0 163.65,12.84 279.19,12.84 51.33,0 83.43,-6.429 157.24,-6.429 28.88,0 73.8,16.058 73.8,38.519 0,22.461 -19.26,38.512 -44.92,48.141 -99.48,35.301 -112.32,67.379 -112.32,102.679 0,35.3 93.06,166.87 173.29,269.56 6.41,6.42 19.25,3.21 22.46,-3.21 64.19,-102.69 93.06,-147.61 144.41,-234.26 48.13,-89.851 19.25,-102.691 -38.52,-118.73 -51.33,-12.828 -73.8,-32.09 -73.8,-60.969 0,-22.473 38.51,-44.93 70.6,-44.93 73.81,0 150.82,9.629 221.43,9.629 80.21,0 410.76,-12.84 426.79,-12.84 38.52,0 83.44,22.469 83.44,54.551 0,22.469 -16.04,38.52 -86.64,57.758" /><path
         id="path22"
         style="fill:#193668;fill-opacity:1;fill-rule:nonzero;stroke:none"
         d="m 541.957,1068.56 c -0.035,0.57 -0.203,7.04 -0.449,16.66 -0.844,33.35 -2.555,105.07 -2.555,105.07 -1.652,93.42 -3.41,223.93 -4.453,344.73 0.605,102.88 1.773,224.15 3.68,334.21 0.859,49.62 1.863,96.89 3.035,139.18 1.562,56.32 3.414,103.82 5.601,135.86 0,11.44 -12.753,33.02 -26.878,35.32 -1.731,0.28 -3.469,0.33 -5.215,-0.02 -51.344,-12.84 -279.188,-93.07 -417.18,-118.74 -9.0274,-1.5 -17.5274,-3.44 -25.543,-5.67 -26.957,-7.49 -47.793,-18.69 -59.6406,-31.34 C 3.30078,2015.76 0,2008.07 0,1999.86 c 0,-19.25 22.4648,-38.51 41.7188,-60.97 57.7617,-54.56 96.2692,-89.85 99.4762,-115.53 6.422,-38.51 6.422,-89.85 6.422,-186.12 0,-57.89 -0.258,-113.84 -0.762,-166.77 -1.085,-113.56 -3.691,-207.52 -5.347,-280.18 -0.059,-2.73 -0.113,-5.21 -0.172,-7.89 -0.758,-33.92 -1.281,-63.27 -1.281,-87.15 0,-75.77 -38.27,-235.02 92.875,-231.602 3.441,0.122 6.777,0.274 10.195,0.403 v -0.031 -0.239 c 7.84,0.34 15.66,0.668 23.328,0.981 4.406,0.168 10.227,0.468 15.867,0.789 4.465,0.148 9.106,0.328 13.438,0.469 10.359,0.32 20.277,0.582 29.543,0.769 0.054,0 0.113,0 0.168,0 2.793,0.051 5.523,0.09 8.187,0.121 2.297,0.031 4.625,0.07 6.821,0.078 13.621,-0.109 29.109,-0.449 46.003,-0.968 3.625,-0.122 7.532,-0.29 11.262,-0.418 5.914,-0.34 12.121,-0.661 16.766,-0.84 7.668,-0.313 15.48,-0.641 23.324,-0.981 v 0.051 0.219 c 3.422,-0.129 6.754,-0.5 10.195,-0.403 123.368,3.653 99.102,123.832 93.93,204.912" /><path
         id="path24"
         style="fill:#193668;fill-opacity:1;fill-rule:nonzero;stroke:none"
         d="m 1319.9,1092.42 c -0.87,34.64 -2.64,109.13 -2.64,109.13 -0.06,2.84 -0.11,5.83 -0.16,8.74 -0.13,2.63 -0.22,4.56 -0.25,5.58 -3.4,118.9 -3.92,124.38 -3.92,188.93 0,4.81 0.01,9.91 0.01,15.02 -2.15,98.87 -3.36,196.51 -3.36,259.14 0,161.77 1.64,351.64 4.17,539.38 0.12,8.52 0.23,17.04 0.36,25.55 5.46,391.6 14.73,767.92 21.14,853.47 0,12.83 -21.95,45.56 -33.01,42.14 -214.56,-66.36 -340.974,-97.45 -472.545,-132.75 -35.3,-9.63 -72.23,-32.47 -72.23,-55.58 0,-16.04 13.73,-43.8 76.808,-97.83 56.231,-51.95 73.676,-65.39 76.372,-118.72 3.207,-93.06 4.226,-378.56 4.226,-516.55 0,-25.64 -0.027,-50.84 -0.082,-75.77 -0.016,-8.23 -0.035,-16.37 -0.059,-24.53 -0.417,-164.43 -1.855,-312.56 -3.949,-441.38 0,-3.52 0.004,-6.97 0.004,-10.62 0,-60.12 -0.269,-118.24 -0.789,-173.21 -1.125,-117.94 -3.84,-215.55 -5.555,-291.01 -0.062,-2.84 -0.117,-5.42 -0.179,-8.19 -0.782,-35.24 -1.332,-65.72 -1.332,-90.52 0,-77.4 -38.325,-238.57 90.019,-240.481 2.145,-0.027 4.207,-0.129 6.446,-0.07 3.575,0.121 7.035,0.281 10.585,0.422 v -0.039 -0.262 c 8.15,0.36 16.27,0.711 24.24,1.02 4.57,0.179 10.62,0.5 16.47,0.82 4.65,0.16 9.47,0.352 13.96,0.488 10.76,0.344 21.06,0.614 30.69,0.801 0.05,0 0.11,0 0.17,0 2.9,0.063 5.74,0.09 8.51,0.133 2.38,0.027 4.8,0.066 7.08,0.09 4.61,-0.043 9.49,-0.121 14.49,-0.192 10.35,-0.191 21.46,-0.461 33.29,-0.832 3.77,-0.117 7.83,-0.297 11.7,-0.437 6.14,-0.34 12.59,-0.68 17.41,-0.871 7.97,-0.309 24.23,-0.719 24.23,-0.719 3.55,-0.141 7.01,-0.531 10.59,-0.422 128.14,3.781 102.93,128.609 97.56,212.841 -0.04,0.58 -0.21,7.28 -0.47,17.29" /><path
         id="path26"
         style="fill:#193668;fill-opacity:1;fill-rule:nonzero;stroke:none"
         d="m 2103.57,1068.56 c -0.03,0.57 -0.2,7.04 -0.45,16.66 -0.84,33.35 -2.55,105.07 -2.55,105.07 -1.66,93.42 -3.41,223.93 -4.46,344.73 0.61,102.88 1.78,224.15 3.68,334.21 0.86,49.62 1.87,96.89 3.04,139.18 1.56,56.32 3.41,103.82 5.6,135.86 0,11.44 -12.75,33.02 -26.88,35.32 -1.73,0.28 -3.46,0.33 -5.21,-0.02 -51.35,-12.84 -279.19,-93.07 -417.18,-118.74 -9.03,-1.5 -17.53,-3.44 -25.54,-5.67 -26.96,-7.49 -47.8,-18.69 -59.65,-31.34 -9.05,-8.06 -12.35,-15.75 -12.35,-23.96 0,-19.25 22.46,-38.51 41.71,-60.97 57.76,-54.56 96.27,-89.85 99.48,-115.53 6.42,-38.51 6.42,-89.85 6.42,-186.12 0,-57.89 -0.26,-113.84 -0.76,-166.77 -1.08,-113.56 -3.69,-207.52 -5.35,-280.18 -0.06,-2.73 -0.11,-5.21 -0.17,-7.89 -0.75,-33.92 -1.28,-63.27 -1.28,-87.15 0,-75.77 -38.27,-235.02 92.88,-231.602 3.44,0.122 6.77,0.274 10.19,0.403 v -0.031 -0.239 c 7.84,0.34 15.65,0.668 23.33,0.981 4.4,0.168 10.23,0.468 15.86,0.789 4.47,0.148 9.11,0.328 13.44,0.469 10.36,0.32 20.28,0.582 29.55,0.769 0.05,0 0.11,0 0.16,0 2.8,0.051 5.53,0.09 8.19,0.121 2.3,0.031 4.63,0.07 6.82,0.078 13.62,-0.109 29.11,-0.449 46.01,-0.968 3.62,-0.122 7.53,-0.29 11.26,-0.418 5.91,-0.34 12.12,-0.661 16.76,-0.84 7.67,-0.313 15.49,-0.641 23.33,-0.981 v 0.051 0.219 c 3.42,-0.129 6.75,-0.5 10.19,-0.403 123.37,3.653 99.1,123.832 93.93,204.912" /><path
         id="path28"
         style="fill:#193668;fill-opacity:1;fill-rule:nonzero;stroke:none"
         d="m 5208.1,1068.56 c -0.15,2.53 -2.99,121.73 -2.99,121.73 -0.35,19.76 -0.71,41.26 -1.06,63.9 -0.61,40.39 -1.26,90.86 -1.26,123.11 0,70.73 0.46,178.06 1.56,291.7 -1.1,160.98 -45.7,296.61 -115.42,379 -19.61,22.42 -49.04,50.34 -89.04,74.7 -51.6,31.41 -120.82,56.87 -209.39,56.87 -150.83,0 -269.56,-70.6 -397.92,-170.08 -1.42,-1.41 -6.54,-2.08 -11.83,-0.9 -6.78,1.51 -13.85,6.14 -13.85,16.94 0,28.88 2.66,81.46 2.66,103.92 0,4.86 -3.15,41.08 -8.61,49.83 -8.93,14.33 -23.55,23.65 -33.51,23.65 -16.04,0 -60.44,-22.39 -121,-49.04 -33.88,-14.91 -127.33,-44.16 -192.85,-64.78 -140.78,-43.02 -172.79,-63.58 -172.79,-89.25 0,-19.25 22.47,-38.51 41.72,-60.97 57.76,-54.56 96.27,-89.85 99.48,-115.53 6.42,-38.51 6.42,-89.85 6.42,-186.12 0,-57.89 -0.26,-113.84 -0.76,-166.77 -0.43,-45.22 -1.11,-87.18 -1.87,-126.07 -1.14,-58.78 -2.48,-110.39 -3.48,-154.11 -0.86,-37.41 -1.45,-69.27 -1.45,-95.04 0,-75.77 -38.27,-235.02 92.87,-231.602 3.45,0.122 6.78,0.274 10.2,0.403 v -0.27 c 7.84,0.34 15.65,0.668 23.33,0.981 4.63,0.179 10.84,0.5 16.75,0.84 3.73,0.128 7.64,0.296 11.27,0.418 16.9,0.519 32.39,0.859 46,0.968 13.62,-0.109 29.1,-0.449 45.99,-0.968 3.64,-0.122 7.54,-0.29 11.27,-0.418 5.91,-0.34 12.12,-0.661 16.76,-0.84 7.68,-0.313 15.49,-0.641 23.33,-0.981 v 0.27 c 3.42,-0.129 6.76,-0.5 10.2,-0.403 123.37,3.653 99.1,123.832 93.93,204.912 -0.16,2.53 -3,121.73 -3,121.73 -0.8,44.6 -1.61,97.69 -2.36,154.11 -1.21,91.51 -2.25,191.84 -2.74,279.28 0.64,76.05 2.37,211.81 2.83,232.97 0.46,21.15 11.28,46.6 27.92,62.98 16.63,16.39 77.01,44.93 176.49,44.93 67.4,0 137.99,-32.09 173.29,-67.39 48.14,-48.13 60.98,-131.57 60.98,-170.08 0,-57.19 -1.22,-231.89 -3.64,-382.69 0,0 -3.88,-110.39 -4.87,-154.11 -0.59,-25.68 -1.04,-48.54 -1.27,-68.82 -0.11,-9.25 -0.19,-18.14 -0.19,-26.22 0,-75.67 -38.14,-234.59 92.39,-231.59 0.17,0 0.33,-0.012 0.49,-0.012 l 0.14,0.012 c 1.28,0.031 2.51,-0.07 3.8,-0.012 2.11,0.102 4.15,0.172 6.26,0.274 v -0.141 c 7.84,0.34 15.65,0.668 23.33,0.981 3.1,0.109 6.93,0.308 10.9,0.508 7.1,0.269 14.27,0.531 21.06,0.75 15.76,0.492 30.36,0.832 43.34,0.96 13.31,-0.121 28.33,-0.46 44.72,-0.96 3.63,-0.122 7.54,-0.29 11.27,-0.418 5.9,-0.34 12.12,-0.661 16.75,-0.84 7.68,-0.313 15.49,-0.641 23.33,-0.981 v 0.168 0.102 c 3.42,-0.129 6.75,-0.5 10.2,-0.403 123.37,3.653 99.1,123.832 93.92,204.912" /><path
         id="path30"
         style="fill:#73779e;fill-opacity:1;fill-rule:nonzero;stroke:none"
         d="M 215.039,91.2617 V 225.871 l -107.598,187.75 h 52.27 l 83.644,-145.5 90.176,145.5 h 42.473 L 260.781,226.738 V 91.2617 h -45.742" /><path
         id="path32"
         style="fill:#73779e;fill-opacity:1;fill-rule:nonzero;stroke:none"
         d="m 517.801,118.059 c 45.445,0 68.176,30.632 68.176,91.91 0,60.562 -22.438,90.832 -67.305,90.832 -44.727,0 -67.09,-30.422 -67.09,-91.262 0,-60.988 22.074,-91.48 66.219,-91.48 z m -0.656,-32.2387 c -33.836,0 -60.848,11.2188 -81.024,33.6407 -20.187,22.437 -30.277,52.469 -30.277,90.078 0,38.039 10.129,68.141 30.386,90.281 20.254,22.141 47.735,33.219 82.442,33.219 34.699,0 62.187,-11.078 82.441,-33.219 20.258,-22.14 30.383,-52.101 30.383,-89.851 0,-38.617 -10.164,-68.969 -30.492,-91.039 C 580.672,96.8594 552.723,85.8203 517.145,85.8203" /><path
         id="path34"
         style="fill:#73779e;fill-opacity:1;fill-rule:nonzero;stroke:none"
         d="m 846.48,91.2617 v 44.4373 c -22.792,-33.258 -50.46,-49.8787 -82.984,-49.8787 -20.621,0 -37.031,6.4883 -49.223,19.4887 -12.199,12.992 -18.3,30.531 -18.3,52.613 v 169.887 h 42.91 v -155.95 c 0,-17.718 2.578,-30.32 7.734,-37.789 5.149,-7.488 13.754,-11.23 25.809,-11.23 26.137,0 50.824,17.219 74.054,51.621 v 153.348 h 42.915 V 91.2617 H 846.48" /><path
         id="path36"
         style="fill:#73779e;fill-opacity:1;fill-rule:nonzero;stroke:none"
         d="M 975.43,91.2617 V 327.809 h 42.91 v -44.438 c 16.99,33.109 41.67,49.668 74.06,49.668 4.35,0 8.93,-0.359 13.72,-1.09 v -40.078 c -7.4,2.469 -13.94,3.711 -19.61,3.711 -27.15,0 -49.87,-16.133 -68.17,-48.363 V 91.2617 h -42.91" /><path
         id="path38"
         style="fill:#73779e;fill-opacity:1;fill-rule:nonzero;stroke:none"
         d="m 1342.01,147.68 c 22.07,-19.75 43.13,-29.621 63.17,-29.621 41.23,0 61.86,31.429 61.86,94.3 0,55.473 -18.31,83.223 -54.89,83.223 -23.97,0 -47.35,-13.012 -70.14,-39 z M 1299.1,5.21875 V 327.809 h 42.91 v -44.438 c 17.56,33.109 43.93,49.668 79.07,49.668 28.46,0 50.85,-10.379 67.19,-31.16 16.33,-20.758 24.51,-49.149 24.51,-85.16 0,-39.199 -9.26,-70.821 -27.78,-94.848 -18.51,-24.039 -42.87,-36.0507 -73.07,-36.0507 -28.03,0 -51.33,10.7305 -69.92,32.2387 V 5.21875 h -42.91" /><path
         id="path40"
         style="fill:#73779e;fill-opacity:1;fill-rule:nonzero;stroke:none"
         d="m 1695.52,144.629 v 61.203 l -14.37,0.438 c -23.53,0 -42.55,-4.461 -57.07,-13.399 -14.52,-8.922 -21.78,-20.652 -21.78,-35.16 0,-10.332 3.63,-19.039 10.89,-26.152 7.26,-7.129 16.12,-10.668 26.57,-10.668 17.86,0 36.45,7.91 55.76,23.738 z m 6.32,-23.301 c -25.7,-23.6678 -50.46,-35.5077 -74.28,-35.5077 -19.6,0 -35.86,6.1289 -48.79,18.3987 -12.92,12.273 -19.38,27.769 -19.38,46.5 0,25.851 10.85,45.722 32.56,59.582 21.71,13.871 52.82,20.789 93.34,20.789 h 10.23 v 28.539 c 0,27.453 -14.09,41.172 -42.25,41.172 -22.66,0 -47.13,-6.973 -73.41,-20.91 v 35.5 c 28.9,11.769 55.98,17.648 81.25,17.648 26.42,0 45.92,-5.957 58.48,-17.859 12.56,-11.91 18.84,-30.418 18.84,-55.551 V 152.461 c 0,-24.531 7.55,-36.801 22.65,-36.801 1.89,0 4.65,0.289 8.28,0.871 l 3.05,-23.7419 c -9.73,-4.6485 -20.48,-6.9688 -32.23,-6.9688 -20.04,0 -32.83,11.8399 -38.34,35.5077" /><path
         id="path42"
         style="fill:#73779e;fill-opacity:1;fill-rule:nonzero;stroke:none"
         d="M 1826.21,91.2617 V 327.809 h 42.91 v -44.438 c 16.99,33.109 41.67,49.668 74.05,49.668 4.36,0 8.93,-0.359 13.72,-1.09 v -40.078 c -7.4,2.469 -13.93,3.711 -19.6,3.711 -27.15,0 -49.88,-16.133 -68.17,-48.363 V 91.2617 h -42.91" /><path
         id="path44"
         style="fill:#73779e;fill-opacity:1;fill-rule:nonzero;stroke:none"
         d="m 2079.75,85.8203 c -21.79,0 -38.77,6.2383 -50.97,18.7307 -12.2,12.488 -18.3,29.84 -18.3,52.051 v 138.98 h -29.62 v 32.227 h 29.62 v 42.902 l 42.91,4.141 v -47.043 h 61.86 v -32.227 h -61.86 V 164.449 c 0,-30.929 13.36,-46.39 40.08,-46.39 5.66,0 12.55,0.933 20.69,2.832 V 91.2617 c -13.21,-3.6211 -24.69,-5.4414 -34.41,-5.4414" /><path
         id="path46"
         style="fill:#73779e;fill-opacity:1;fill-rule:nonzero;stroke:none"
         d="M 2175.58,91.2617 V 327.809 h 42.91 v -44.438 c 22.65,33.109 50.39,49.668 83.21,49.668 20.47,0 36.81,-6.5 49.01,-19.5 C 2362.9,300.551 2369,283.082 2369,261.16 V 91.2617 h -42.91 V 247.219 c 0,17.57 -2.58,30.082 -7.73,37.57 -5.16,7.481 -13.69,11.223 -25.59,11.223 -26.29,0 -51.05,-17.203 -74.28,-51.633 V 91.2617 h -42.91" /><path
         id="path48"
         style="fill:#73779e;fill-opacity:1;fill-rule:nonzero;stroke:none"
         d="m 2479.43,235.02 h 104.33 c 0,44 -16.41,66 -49.22,66 -32.96,0 -51.33,-22 -55.11,-66 z M 2625.8,98.8906 c -28.75,-8.7109 -53.36,-13.0703 -73.83,-13.0703 -34.86,0 -63.28,11.5781 -85.28,34.7497 -22,23.149 -33,53.168 -33,90.051 0,35.871 9.69,65.277 29.08,88.219 19.39,22.949 44.18,34.41 74.39,34.41 28.6,0 50.71,-10.16 66.32,-30.488 15.61,-20.34 23.41,-49.223 23.41,-86.692 l -0.22,-13.289 h -149.2 c 6.25,-56.199 33.76,-84.293 82.55,-84.293 17.87,0 39.79,4.793 65.78,14.371 V 98.8906" /><path
         id="path50"
         style="fill:#73779e;fill-opacity:1;fill-rule:nonzero;stroke:none"
         d="M 2700.95,91.2617 V 327.809 h 42.91 v -44.438 c 16.98,33.109 41.67,49.668 74.05,49.668 4.36,0 8.94,-0.359 13.73,-1.09 v -40.078 c -7.41,2.469 -13.94,3.711 -19.61,3.711 -27.15,0 -49.88,-16.133 -68.17,-48.363 V 91.2617 h -42.91" /><path
         id="path52"
         style="fill:#73779e;fill-opacity:1;fill-rule:nonzero;stroke:none"
         d="M 3024.62,91.2617 V 327.809 h 42.91 V 91.2617 Z m 0,279.4493 v 42.91 h 42.91 v -42.91 h -42.91" /><path
         id="path54"
         style="fill:#73779e;fill-opacity:1;fill-rule:nonzero;stroke:none"
         d="M 3153.56,91.2617 V 327.809 h 42.92 v -44.438 c 22.65,33.109 50.38,49.668 83.2,49.668 20.48,0 36.81,-6.5 49.01,-19.5 12.2,-12.988 18.3,-30.457 18.3,-52.379 V 91.2617 h -42.91 V 247.219 c 0,17.57 -2.58,30.082 -7.73,37.57 -5.16,7.481 -13.69,11.223 -25.59,11.223 -26.29,0 -51.05,-17.203 -74.28,-51.633 V 91.2617 h -42.92" /><path
         id="path56"
         style="fill:#73779e;fill-opacity:1;fill-rule:nonzero;stroke:none"
         d="m 3723.36,271.398 c -22.22,19.602 -43.27,29.403 -63.16,29.403 -41.1,0 -61.64,-31.442 -61.64,-94.321 0,-55.32 18.29,-82.98 54.89,-82.98 23.81,0 47.11,12.992 69.91,38.988 z m 0,-180.1363 v 44.4373 c -17.41,-33.258 -43.7,-49.8787 -78.85,-49.8787 -28.46,0 -50.86,10.3711 -67.19,31.1407 -16.34,20.758 -24.5,49.148 -24.5,85.168 0,39.351 9.26,71 27.77,94.961 18.51,23.969 42.87,35.949 73.07,35.949 28.02,0 51.26,-10.75 69.7,-32.238 v 134.398 h 43.12 V 91.2617 h -43.12" /><path
         id="path58"
         style="fill:#73779e;fill-opacity:1;fill-rule:nonzero;stroke:none"
         d="M 3852.31,91.2617 V 327.809 h 42.9 V 91.2617 Z m 0,279.4493 v 42.91 h 42.9 v -42.91 h -42.9" /><path
         id="path60"
         style="fill:#73779e;fill-opacity:1;fill-rule:nonzero;stroke:none"
         d="m 4133.07,173.16 v 98.238 c -18.88,19.602 -39.42,29.403 -61.64,29.403 -19.75,0 -35.22,-7.91 -46.4,-23.742 -11.18,-15.829 -16.77,-37.539 -16.77,-65.129 0,-51.84 18.22,-77.75 54.67,-77.75 24.83,0 48.21,12.992 70.14,38.98 z m -150.94,-160.5194 5.01,37.2305 c 24.82,-11.75 49.29,-17.6328 73.39,-17.6328 48.37,0 72.54,25.6211 72.54,76.8827 v 37.25 c -15.82,-33.109 -41.82,-49.6601 -77.98,-49.6601 -28.31,0 -50.83,10.3091 -67.52,30.9301 -16.7,20.621 -25.05,48.418 -25.05,83.418 0,36.011 9.5,65.351 28.53,88 19.03,22.652 43.64,33.98 73.84,33.98 26.43,0 49.15,-10.75 68.18,-32.238 v 27.008 h 43.12 V 155.73 c 0,-37.031 -1.92,-64.4409 -5.77,-82.2105 -3.85,-17.789 -11.07,-32.3476 -21.67,-43.6875 C 4130.02,9.94922 4100.9,0 4061.41,0 c -27.59,0 -54.02,4.21875 -79.28,12.6406" /><path
         id="path62"
         style="fill:#73779e;fill-opacity:1;fill-rule:nonzero;stroke:none"
         d="M 4259.4,91.2617 V 327.809 h 42.9 V 91.2617 Z m 0,279.4493 v 42.91 h 42.9 v -42.91 h -42.9" /><path
         id="path64"
         style="fill:#73779e;fill-opacity:1;fill-rule:nonzero;stroke:none"
         d="m 4459.36,85.8203 c -21.78,0 -38.76,6.2383 -50.97,18.7307 -12.2,12.488 -18.29,29.84 -18.29,52.051 v 138.98 h -29.62 v 32.227 h 29.62 v 42.902 l 42.91,4.141 v -47.043 h 61.85 v -32.227 h -61.85 V 164.449 c 0,-30.929 13.36,-46.39 40.08,-46.39 5.66,0 12.54,0.933 20.68,2.832 V 91.2617 c -13.21,-3.6211 -24.68,-5.4414 -34.41,-5.4414" /><path
         id="path66"
         style="fill:#73779e;fill-opacity:1;fill-rule:nonzero;stroke:none"
         d="m 4670.85,144.629 v 61.203 l -14.38,0.438 c -23.51,0 -42.54,-4.461 -57.06,-13.399 -14.52,-8.922 -21.78,-20.652 -21.78,-35.16 0,-10.332 3.63,-19.039 10.89,-26.152 7.26,-7.129 16.12,-10.668 26.58,-10.668 17.86,0 36.44,7.91 55.75,23.738 z m 6.32,-23.301 c -25.7,-23.6678 -50.46,-35.5077 -74.27,-35.5077 -19.61,0 -35.87,6.1289 -48.8,18.3987 -12.92,12.273 -19.37,27.769 -19.37,46.5 0,25.851 10.85,45.722 32.55,59.582 21.71,13.871 52.82,20.789 93.33,20.789 h 10.24 v 28.539 c 0,27.453 -14.08,41.172 -42.25,41.172 -22.65,0 -47.13,-6.973 -73.41,-20.91 v 35.5 c 28.9,11.769 55.98,17.648 81.25,17.648 26.42,0 45.92,-5.957 58.48,-17.859 12.56,-11.91 18.84,-30.418 18.84,-55.551 V 152.461 c 0,-24.531 7.56,-36.801 22.66,-36.801 1.89,0 4.64,0.289 8.28,0.871 l 3.04,-23.7419 c -9.72,-4.6485 -20.47,-6.9688 -32.23,-6.9688 -20.04,0 -32.82,11.8399 -38.34,35.5077" /><path
         id="path68"
         style="fill:#73779e;fill-opacity:1;fill-rule:nonzero;stroke:none"
         d="M 4801.54,91.2617 V 435.199 h 42.9 V 91.2617 h -42.9" /><path
         id="path70"
         style="fill:#73779e;fill-opacity:1;fill-rule:nonzero;stroke:none"
         d="m 5114.53,147.68 c 22.08,-19.75 43.13,-29.621 63.17,-29.621 41.23,0 61.86,31.429 61.86,94.3 0,55.473 -18.29,83.223 -54.89,83.223 -23.96,0 -47.34,-13.012 -70.14,-39 z m -42.9,-59.0316 V 435.199 h 42.9 V 283.371 c 17.58,33.109 43.94,49.668 79.07,49.668 28.46,0 50.86,-10.379 67.19,-31.16 16.35,-20.758 24.51,-49.149 24.51,-85.16 0,-39.199 -9.26,-70.821 -27.76,-94.848 -18.52,-24.039 -42.88,-36.0507 -73.09,-36.0507 -28.02,0 -51.33,10.7305 -69.92,32.2387 l -5.22,-29.4106 h -37.68" /><path
         id="path72"
         style="fill:#73779e;fill-opacity:1;fill-rule:nonzero;stroke:none"
         d="m 5500.29,91.2617 v 44.4373 c -22.8,-33.258 -50.47,-49.8787 -83,-49.8787 -20.61,0 -37.02,6.4883 -49.22,19.4887 -12.19,12.992 -18.3,30.531 -18.3,52.613 v 169.887 h 42.91 v -155.95 c 0,-17.718 2.58,-30.32 7.74,-37.789 5.15,-7.488 13.75,-11.23 25.81,-11.23 26.13,0 50.82,17.219 74.06,51.621 v 153.348 h 42.9 V 91.2617 h -42.9" /><path
         id="path74"
         style="fill:#73779e;fill-opacity:1;fill-rule:nonzero;stroke:none"
         d="m 5691.97,85.8203 c -19.6,0 -43.43,4.5703 -71.45,13.7188 v 39.4219 c 28.02,-13.93 52.43,-20.902 73.19,-20.902 12.34,0 22.58,3.339 30.71,10.023 8.13,6.68 12.2,15.02 12.2,25.039 0,14.668 -11.4,26.789 -34.2,36.367 l -25.04,10.692 c -37.03,15.379 -55.54,37.531 -55.54,66.422 0,20.617 7.29,36.847 21.88,48.679 14.6,11.84 34.6,17.758 60.01,17.758 13.21,0 29.55,-1.82 49.01,-5.449 l 8.93,-1.738 v -35.723 c -23.96,7.109 -42.99,10.672 -57.07,10.672 -27.59,0 -41.38,-10.02 -41.38,-30.063 0,-12.929 10.45,-23.816 31.36,-32.656 l 20.69,-8.723 c 23.38,-9.879 39.93,-20.3 49.66,-31.257 9.73,-10.961 14.6,-24.653 14.6,-41.063 0,-20.758 -8.2,-37.828 -24.62,-51.187 -16.4,-13.352 -37.39,-20.0317 -62.94,-20.0317" /><path
         id="path76"
         style="fill:#73779e;fill-opacity:1;fill-rule:nonzero;stroke:none"
         d="M 5856.63,91.2617 V 327.809 h 42.9 V 91.2617 Z m 0,279.4493 v 42.91 h 42.9 v -42.91 h -42.9" /><path
         id="path78"
         style="fill:#73779e;fill-opacity:1;fill-rule:nonzero;stroke:none"
         d="M 5985.59,91.2617 V 327.809 h 42.9 v -44.438 c 22.65,33.109 50.39,49.668 83.21,49.668 20.47,0 36.81,-6.5 49,-19.5 12.2,-12.988 18.29,-30.457 18.29,-52.379 V 91.2617 h -42.9 V 247.219 c 0,17.57 -2.58,30.082 -7.73,37.57 -5.16,7.481 -13.69,11.223 -25.6,11.223 -26.29,0 -51.04,-17.203 -74.27,-51.633 V 91.2617 h -42.9" /><path
         id="path80"
         style="fill:#73779e;fill-opacity:1;fill-rule:nonzero;stroke:none"
         d="m 6289.43,235.02 h 104.33 c 0,44 -16.41,66 -49.23,66 -32.97,0 -51.33,-22 -55.1,-66 z M 6435.8,98.8906 c -28.75,-8.7109 -53.36,-13.0703 -73.85,-13.0703 -34.84,0 -63.26,11.5781 -85.26,34.7497 -22,23.149 -33,53.168 -33,90.051 0,35.871 9.69,65.277 29.07,88.219 19.39,22.949 44.18,34.41 74.39,34.41 28.6,0 50.71,-10.16 66.32,-30.488 15.61,-20.34 23.41,-49.223 23.41,-86.692 l -0.21,-13.289 h -149.21 c 6.25,-56.199 33.77,-84.293 82.56,-84.293 17.86,0 39.77,4.793 65.78,14.371 V 98.8906" /><path
         id="path82"
         style="fill:#73779e;fill-opacity:1;fill-rule:nonzero;stroke:none"
         d="m 6573.68,85.8203 c -19.61,0 -43.43,4.5703 -71.45,13.7188 v 39.4219 c 28.02,-13.93 52.42,-20.902 73.19,-20.902 12.34,0 22.58,3.339 30.71,10.023 8.13,6.68 12.2,15.02 12.2,25.039 0,14.668 -11.4,26.789 -34.2,36.367 l -25.05,10.692 c -37.02,15.379 -55.54,37.531 -55.54,66.422 0,20.617 7.3,36.847 21.89,48.679 14.59,11.84 34.6,17.758 60.01,17.758 13.21,0 29.54,-1.82 49.01,-5.449 l 8.92,-1.738 v -35.723 c -23.96,7.109 -42.98,10.672 -57.06,10.672 -27.6,0 -41.39,-10.02 -41.39,-30.063 0,-12.929 10.46,-23.816 31.37,-32.656 l 20.69,-8.723 c 23.38,-9.879 39.93,-20.3 49.66,-31.257 9.73,-10.961 14.59,-24.653 14.59,-41.063 0,-20.758 -8.19,-37.828 -24.61,-51.187 -16.41,-13.352 -37.39,-20.0317 -62.94,-20.0317" /><path
         id="path84"
         style="fill:#73779e;fill-opacity:1;fill-rule:nonzero;stroke:none"
         d="m 6801.07,85.8203 c -19.6,0 -43.41,4.5703 -71.44,13.7188 v 39.4219 c 28.03,-13.93 52.42,-20.902 73.19,-20.902 12.34,0 22.57,3.339 30.7,10.023 8.14,6.68 12.21,15.02 12.21,25.039 0,14.668 -11.4,26.789 -34.21,36.367 l -25.04,10.692 c -37.03,15.379 -55.54,37.531 -55.54,66.422 0,20.617 7.3,36.847 21.89,48.679 14.59,11.84 34.59,17.758 60.01,17.758 13.21,0 29.54,-1.82 49.01,-5.449 l 8.92,-1.738 v -35.723 c -23.95,7.109 -42.98,10.672 -57.06,10.672 -27.6,0 -41.39,-10.02 -41.39,-30.063 0,-12.929 10.45,-23.816 31.37,-32.656 l 20.68,-8.723 c 23.38,-9.879 39.95,-20.3 49.67,-31.257 9.73,-10.961 14.59,-24.653 14.59,-41.063 0,-20.758 -8.2,-37.828 -24.61,-51.187 -16.41,-13.352 -37.39,-20.0317 -62.95,-20.0317" /></g></g></svg>